<svg xmlns="http://www.w3.org/2000/svg" viewBox="0 0 500.87 500.87"><defs><style>.cls-1{fill:#6cada5;stroke:#6cada5;}.cls-1,.cls-2,.cls-3,.cls-5{stroke-miterlimit:10;}.cls-2,.cls-3,.cls-5{fill:none;stroke-width:75px;}.cls-2{stroke:#ffd37b;}.cls-3{stroke:#f2e6d7;}.cls-4{fill:#fff;}.cls-5{stroke:#ff8d98;}</style></defs><g id="Layer_2" data-name="Layer 2"><g id="Layer_1-2" data-name="Layer 1"><g id="_YOUR_ICON_HERE_" data-name="[YOUR ICON HERE]"><path id="App_Icon_Placeholder" data-name="App Icon Placeholder" class="cls-1" d="M174.77.5H326.09C376.28.5,401.36.5,428.37,9a106.15,106.15,0,0,1,63.46,63.45c8.54,27,8.54,52.11,8.54,102.28V326.09c0,50.19,0,75.27-8.54,102.28a106.17,106.17,0,0,1-63.46,63.46c-27,8.54-52.09,8.54-102.28,8.54H174.77c-50.18,0-75.26,0-102.28-8.54A106.15,106.15,0,0,1,9,428.37C.5,401.36.5,376.28.5,326.09V174.77C.5,124.6.5,99.51,9,72.49A106.14,106.14,0,0,1,72.49,9C99.51.5,124.59.5,174.77.5h0"/></g><path class="cls-2" d="M182.23,168.89c7.6-.83,71.77-6.84,116.66,41.4,28.71,30.86,33.66,66.85,34.81,79.66"/><line class="cls-3" x1="189.24" y1="50.59" x2="189.04" y2="449.3"/><circle class="cls-4" cx="189.04" cy="163.07" r="6.85"/><path class="cls-5" d="M333.88,290.26c4.5,51-20,98.69-61.57,120.44-43.91,23-88.15,7.26-95.76,4.42"/><circle class="cls-4" cx="333.09" cy="289.85" r="6.85"/><circle class="cls-4" cx="189.57" cy="418.55" r="6.85"/></g></g></svg>